<?xml version="1.0" encoding="iso-8859-1"?>
<!-- Generator: Adobe Illustrator 19.0.0, SVG Export Plug-In . SVG Version: 6.00 Build 0)  -->
<svg version="1.1" id="Capa_1" xmlns="http://www.w3.org/2000/svg" xmlns:xlink="http://www.w3.org/1999/xlink" x="0px" y="0px"
	 viewBox="0 0 512 512" style="enable-background:new 0 0 512 512;" xml:space="preserve">
<path style="fill:#303C42;" d="M462.521,234.667H335.13c3.21-6.771,5.533-13.151,6.724-18.344
	c18.479-12.813,21.313-61.021,21.313-61.583c0-8.094-2.813-19.198-9.667-26.26c4.833-8.385,8.667-19.469,9.5-31.823l6.75-5.979
	c2.271-2.021,3.583-4.927,3.583-7.979C373.333,42.927,330.417,0,261.083,0c-38.979,0-58.375,12.25-65.688,18.469
	c-18.542,3.385-46.563,25.198-46.563,55.229l-0.063,8.781c-0.167,20.115,0.042,34.177,1.979,43.813
	c-8.604,6.76-12.083,19.458-12.083,28.448c0,0.563,2.833,48.771,21.313,61.583c1.191,5.193,3.514,11.573,6.724,18.344H49.479
	C22.188,234.667,0,256.865,0,284.156c0,3.25,0.312,6.5,0.958,9.708l36.771,183.833C41.708,497.573,59.313,512,79.563,512h352.875
	c20.25,0,37.854-14.427,41.833-34.302l36.771-183.844c0.646-3.198,0.958-6.448,0.958-9.698
	C512,256.865,489.813,234.667,462.521,234.667z"/>
<path style="fill:#CCCCCC;" d="M180.313,208.76c0-5.302-3.875-9.698-8.938-10.531C165.813,192.365,160,163.125,160,154.74
	c0-4.76,2.438-11.792,4.625-11.792c4.438,0,8.875-2.208,10.438-6.344c1.563-4.146,0.875-8.302-2.438-11.24
	c-2.833-5.323-2.625-30.563-2.521-42.698l0.063-8.969c0-19.708,22.938-34.354,29.958-34.354c2.979,0,5.979-1.427,8-3.604
	c0.125-0.146,13.792-14.406,52.958-14.406c55.917,0,87.188,31.656,90.604,56.844l-6.271,5.552c-2.271,2.021-3.583,4.927-3.583,7.979
	c0,16.792-7.875,29.208-11.708,32.594c-3.313,2.938-4.458,7.615-2.896,11.76c1.583,4.146,5.542,6.885,9.979,6.885
	c2.188,0,4.625,7.031,4.625,11.792c0,8.385-5.813,37.625-11.375,43.49c-5.063,0.833-8.938,5.229-8.938,10.531
	c0,2.823-3.083,13.656-10.521,25.906H190.833C183.396,222.417,180.313,211.583,180.313,208.76z"/>
<path style="fill:#F2F2F2;" d="M490.125,289.677L453.354,473.51c-2,9.938-10.792,17.156-20.917,17.156H79.563
	c-10.125,0-18.917-7.219-20.917-17.156L21.875,289.688c-0.354-1.823-0.542-3.677-0.542-5.531c0-15.521,12.625-28.156,28.146-28.156
	h413.042c15.521,0,28.146,12.635,28.146,28.156C490.667,286.01,490.479,287.865,490.125,289.677z"/>
<g>
	<path style="opacity:0.2;fill:#FFFFFF;enable-background:new    ;" d="M170.223,164.961c0-4.76,2.438-11.792,4.625-11.792
		c4.438,0,8.875-2.208,10.438-6.344c1.563-4.146,0.875-8.302-2.438-11.24c-2.833-5.323-2.625-30.563-2.521-42.698l0.063-8.969
		c0-19.708,22.938-34.354,29.958-34.354c2.979,0,5.979-1.427,8-3.604c0.125-0.146,13.792-14.406,52.958-14.406
		c30.451,0,53.306,9.5,68.621,22.118c-14.148-17.44-40.564-32.34-78.844-32.34c-39.167,0-52.833,14.26-52.958,14.406
		c-2.021,2.177-5.021,3.604-8,3.604c-7.021,0-29.958,14.646-29.958,34.354l-0.063,8.969c-0.104,12.135-0.313,37.375,2.521,42.698
		c3.313,2.938,4,7.094,2.438,11.24c-1.563,4.135-6,6.344-10.438,6.344c-2.188,0-4.625,7.031-4.625,11.792
		c0,8.385,5.813,37.625,11.375,43.49c3.301,0.543,5.969,2.685,7.514,5.522C174.301,193.445,170.223,171.978,170.223,164.961z"/>
	<path style="opacity:0.2;fill:#FFFFFF;enable-background:new    ;" d="M190.535,218.982c0-5.302-3.875-9.698-8.938-10.531
		c-0.621-0.655-1.243-1.689-1.862-2.865c0.319,1.013,0.577,2.057,0.577,3.174c0,2.823,3.083,13.656,10.521,25.906h4.844
		C192.174,227.036,190.535,220.97,190.535,218.982z"/>
	<path style="opacity:0.2;fill:#FFFFFF;enable-background:new    ;" d="M68.868,483.732L32.098,299.909
		c-0.354-1.823-0.542-3.677-0.542-5.531c0-15.521,12.625-28.156,28.146-28.156h413.042c5.111,0,9.647,1.74,13.783,4.132
		C481.655,261.936,472.923,256,462.521,256H49.479c-15.521,0-28.146,12.635-28.146,28.156c0,1.854,0.188,3.708,0.542,5.531
		L58.646,473.51c1.374,6.826,6.068,12.169,12.081,14.971C70.004,486.951,69.214,485.449,68.868,483.732z"/>
</g>
<path style="fill:#303C42;" d="M310.396,399.302c-6.813-0.677-10.375-4.188-10.375-5.885c0-1.531,2.729-4.292,7.833-5.469
	c3.667-0.854,6.604-3.563,7.75-7.135c1.167-3.573,0.333-7.49-2.146-10.313c-7.75-8.802-20.021-14.948-29.875-14.948
	c-2.281,0-4.358,0.315-6.449,0.599c11.401-4.582,19.158-14.109,19.158-25.484c0-5.896-4.771-10.667-10.667-10.667
	c-19.271,0-34.375,12.5-34.375,28.448c0,5.536,4.26,9.93,9.655,10.462c-4.025,0.414-7.859,0.337-12.613-0.816
	c-4.896-1.188-10.438-2.542-16.729-2.542c-16.125,0-39.563,15.563-39.563,39.948c0,24.042,23.021,52.5,42.458,52.5
	c9.167,0,14.771-1.813,18.833-3.135c4.292-1.375,4.271-1.375,8.521,0c4.104,1.323,9.688,3.135,18.875,3.135
	c15.958,0,31.75-17.542,38.521-34.042c1.271-3.115,1-6.646-0.729-9.542C316.75,401.531,313.75,399.635,310.396,399.302z"/>
<path style="fill:#F2F2F2;" d="M280.688,426.667c-5.813,0-8.958-1.021-12.292-2.094c-3.021-0.979-6.438-2.094-10.833-2.094
	c-4.396,0-7.813,1.115-10.833,2.094c-3.333,1.073-6.479,2.094-12.271,2.094c-5.146,0-21.125-16.563-21.125-31.167
	c0-12.01,13.688-18.615,18.229-18.615c3.729,0,7.583,0.938,11.688,1.938c9.104,2.219,19.542,2.219,28.646,0
	c4.083-1,7.958-1.938,11.688-1.938c0.416,0,0.979,0.073,1.646,0.229c-4.167,4.563-6.542,10.219-6.542,16.302
	c0,9.542,5.792,17.875,14.896,22.76C288.542,422.854,282.875,426.667,280.688,426.667z"/>
<linearGradient id="SVGID_1_" gradientUnits="userSpaceOnUse" x1="-35.2233" y1="629.0276" x2="-27.8521" y2="621.6555" gradientTransform="matrix(21.3333 0 0 -21.3333 996.3334 13791.667)">
	<stop  offset="0" style="stop-color:#000000;stop-opacity:0.1"/>
	<stop  offset="1" style="stop-color:#000000;stop-opacity:0"/>
</linearGradient>
<path style="fill:url(#SVGID_1_);" d="M293.583,323.737c1.63,1.872,2.708,4.249,2.708,6.93c0,11.375-7.757,20.902-19.158,25.484
	c2.091-0.284,4.168-0.599,6.449-0.599c9.854,0,22.125,6.146,29.875,14.948c2.479,2.823,3.313,6.74,2.146,10.313
	c-1.146,3.573-4.083,6.281-7.75,7.135c-5.104,1.177-7.833,3.938-7.833,5.469c0,1.698,3.563,5.208,10.375,5.885
	c3.354,0.333,6.354,2.229,8.083,5.115c1.729,2.896,2,6.427,0.729,9.542c-6.771,16.5-22.563,34.042-38.521,34.042
	c-9.188,0-14.771-1.813-18.875-3.135c-4.25-1.375-4.229-1.375-8.521,0c-4.063,1.323-9.667,3.135-18.833,3.135
	c-6.404,0-13.143-3.284-19.372-8.285l-0.103,0.152l50.801,50.799h166.654c7.484,0,14.204-3.977,18.026-10.049L293.583,323.737z"/>
<linearGradient id="SVGID_2_" gradientUnits="userSpaceOnUse" x1="-44.8693" y1="637.6102" x2="-22.8869" y2="627.3559" gradientTransform="matrix(21.3333 0 0 -21.3333 996.3334 13791.667)">
	<stop  offset="0" style="stop-color:#FFFFFF;stop-opacity:0.2"/>
	<stop  offset="1" style="stop-color:#FFFFFF;stop-opacity:0"/>
</linearGradient>
<path style="fill:url(#SVGID_2_);" d="M462.521,234.667H335.13c3.21-6.771,5.533-13.151,6.724-18.344
	c18.479-12.813,21.313-61.021,21.313-61.583c0-8.094-2.813-19.198-9.667-26.26c4.833-8.385,8.667-19.469,9.5-31.823l6.75-5.979
	c2.271-2.021,3.583-4.927,3.583-7.979C373.333,42.927,330.417,0,261.083,0c-38.979,0-58.375,12.25-65.688,18.469
	c-18.542,3.385-46.563,25.198-46.563,55.229l-0.063,8.781c-0.167,20.115,0.042,34.177,1.979,43.813
	c-8.604,6.76-12.083,19.458-12.083,28.448c0,0.563,2.833,48.771,21.313,61.583c1.191,5.193,3.514,11.573,6.724,18.344H49.479
	C22.188,234.667,0,256.865,0,284.156c0,3.25,0.312,6.5,0.958,9.708l36.771,183.833C41.708,497.573,59.313,512,79.563,512h352.875
	c20.25,0,37.854-14.427,41.833-34.302l36.771-183.844c0.646-3.198,0.958-6.448,0.958-9.698
	C512,256.865,489.813,234.667,462.521,234.667z"/>
<g>
</g>
<g>
</g>
<g>
</g>
<g>
</g>
<g>
</g>
<g>
</g>
<g>
</g>
<g>
</g>
<g>
</g>
<g>
</g>
<g>
</g>
<g>
</g>
<g>
</g>
<g>
</g>
<g>
</g>
</svg>
